<svg xmlns="http://www.w3.org/2000/svg" width="292" height="292" viewBox="0 0 292 292">
<rect width="292" height="292" fill="white" rx="8"/>
<rect x="20" y="20" width="12" height="12" fill="#080808"/><rect x="32" y="20" width="12" height="12" fill="#080808"/><rect x="44" y="20" width="12" height="12" fill="#080808"/><rect x="56" y="20" width="12" height="12" fill="#080808"/><rect x="68" y="20" width="12" height="12" fill="#080808"/><rect x="80" y="20" width="12" height="12" fill="#080808"/><rect x="92" y="20" width="12" height="12" fill="#080808"/><rect x="116" y="20" width="12" height="12" fill="#080808"/><rect x="140" y="20" width="12" height="12" fill="#080808"/><rect x="152" y="20" width="12" height="12" fill="#080808"/><rect x="188" y="20" width="12" height="12" fill="#080808"/><rect x="200" y="20" width="12" height="12" fill="#080808"/><rect x="212" y="20" width="12" height="12" fill="#080808"/><rect x="224" y="20" width="12" height="12" fill="#080808"/><rect x="236" y="20" width="12" height="12" fill="#080808"/><rect x="248" y="20" width="12" height="12" fill="#080808"/><rect x="260" y="20" width="12" height="12" fill="#080808"/><rect x="20" y="32" width="12" height="12" fill="#080808"/><rect x="92" y="32" width="12" height="12" fill="#080808"/><rect x="128" y="32" width="12" height="12" fill="#080808"/><rect x="164" y="32" width="12" height="12" fill="#080808"/><rect x="188" y="32" width="12" height="12" fill="#080808"/><rect x="260" y="32" width="12" height="12" fill="#080808"/><rect x="20" y="44" width="12" height="12" fill="#080808"/><rect x="44" y="44" width="12" height="12" fill="#080808"/><rect x="56" y="44" width="12" height="12" fill="#080808"/><rect x="68" y="44" width="12" height="12" fill="#080808"/><rect x="92" y="44" width="12" height="12" fill="#080808"/><rect x="116" y="44" width="12" height="12" fill="#080808"/><rect x="140" y="44" width="12" height="12" fill="#080808"/><rect x="164" y="44" width="12" height="12" fill="#080808"/><rect x="188" y="44" width="12" height="12" fill="#080808"/><rect x="212" y="44" width="12" height="12" fill="#080808"/><rect x="224" y="44" width="12" height="12" fill="#080808"/><rect x="236" y="44" width="12" height="12" fill="#080808"/><rect x="260" y="44" width="12" height="12" fill="#080808"/><rect x="20" y="56" width="12" height="12" fill="#080808"/><rect x="44" y="56" width="12" height="12" fill="#080808"/><rect x="56" y="56" width="12" height="12" fill="#080808"/><rect x="68" y="56" width="12" height="12" fill="#080808"/><rect x="92" y="56" width="12" height="12" fill="#080808"/><rect x="128" y="56" width="12" height="12" fill="#080808"/><rect x="140" y="56" width="12" height="12" fill="#080808"/><rect x="152" y="56" width="12" height="12" fill="#080808"/><rect x="188" y="56" width="12" height="12" fill="#080808"/><rect x="212" y="56" width="12" height="12" fill="#080808"/><rect x="224" y="56" width="12" height="12" fill="#080808"/><rect x="236" y="56" width="12" height="12" fill="#080808"/><rect x="260" y="56" width="12" height="12" fill="#080808"/><rect x="20" y="68" width="12" height="12" fill="#080808"/><rect x="44" y="68" width="12" height="12" fill="#080808"/><rect x="56" y="68" width="12" height="12" fill="#080808"/><rect x="68" y="68" width="12" height="12" fill="#080808"/><rect x="92" y="68" width="12" height="12" fill="#080808"/><rect x="116" y="68" width="12" height="12" fill="#080808"/><rect x="128" y="68" width="12" height="12" fill="#080808"/><rect x="152" y="68" width="12" height="12" fill="#080808"/><rect x="164" y="68" width="12" height="12" fill="#080808"/><rect x="188" y="68" width="12" height="12" fill="#080808"/><rect x="212" y="68" width="12" height="12" fill="#080808"/><rect x="224" y="68" width="12" height="12" fill="#080808"/><rect x="236" y="68" width="12" height="12" fill="#080808"/><rect x="260" y="68" width="12" height="12" fill="#080808"/><rect x="20" y="80" width="12" height="12" fill="#080808"/><rect x="92" y="80" width="12" height="12" fill="#080808"/><rect x="140" y="80" width="12" height="12" fill="#080808"/><rect x="188" y="80" width="12" height="12" fill="#080808"/><rect x="260" y="80" width="12" height="12" fill="#080808"/><rect x="20" y="92" width="12" height="12" fill="#080808"/><rect x="32" y="92" width="12" height="12" fill="#080808"/><rect x="44" y="92" width="12" height="12" fill="#080808"/><rect x="56" y="92" width="12" height="12" fill="#080808"/><rect x="68" y="92" width="12" height="12" fill="#080808"/><rect x="80" y="92" width="12" height="12" fill="#080808"/><rect x="92" y="92" width="12" height="12" fill="#080808"/><rect x="116" y="92" width="12" height="12" fill="#080808"/><rect x="140" y="92" width="12" height="12" fill="#080808"/><rect x="164" y="92" width="12" height="12" fill="#080808"/><rect x="188" y="92" width="12" height="12" fill="#080808"/><rect x="200" y="92" width="12" height="12" fill="#080808"/><rect x="212" y="92" width="12" height="12" fill="#080808"/><rect x="224" y="92" width="12" height="12" fill="#080808"/><rect x="236" y="92" width="12" height="12" fill="#080808"/><rect x="248" y="92" width="12" height="12" fill="#080808"/><rect x="260" y="92" width="12" height="12" fill="#080808"/><rect x="116" y="104" width="12" height="12" fill="#080808"/><rect x="128" y="104" width="12" height="12" fill="#080808"/><rect x="152" y="104" width="12" height="12" fill="#080808"/><rect x="164" y="104" width="12" height="12" fill="#080808"/><rect x="20" y="116" width="12" height="12" fill="#080808"/><rect x="32" y="116" width="12" height="12" fill="#080808"/><rect x="56" y="116" width="12" height="12" fill="#080808"/><rect x="68" y="116" width="12" height="12" fill="#080808"/><rect x="92" y="116" width="12" height="12" fill="#080808"/><rect x="104" y="116" width="12" height="12" fill="#080808"/><rect x="116" y="116" width="12" height="12" fill="#080808"/><rect x="140" y="116" width="12" height="12" fill="#080808"/><rect x="152" y="116" width="12" height="12" fill="#080808"/><rect x="176" y="116" width="12" height="12" fill="#080808"/><rect x="188" y="116" width="12" height="12" fill="#080808"/><rect x="212" y="116" width="12" height="12" fill="#080808"/><rect x="224" y="116" width="12" height="12" fill="#080808"/><rect x="248" y="116" width="12" height="12" fill="#080808"/><rect x="260" y="116" width="12" height="12" fill="#080808"/><rect x="32" y="128" width="12" height="12" fill="#080808"/><rect x="44" y="128" width="12" height="12" fill="#080808"/><rect x="80" y="128" width="12" height="12" fill="#080808"/><rect x="104" y="128" width="12" height="12" fill="#080808"/><rect x="140" y="128" width="12" height="12" fill="#080808"/><rect x="176" y="128" width="12" height="12" fill="#080808"/><rect x="200" y="128" width="12" height="12" fill="#080808"/><rect x="236" y="128" width="12" height="12" fill="#080808"/><rect x="248" y="128" width="12" height="12" fill="#080808"/><rect x="20" y="140" width="12" height="12" fill="#080808"/><rect x="44" y="140" width="12" height="12" fill="#080808"/><rect x="56" y="140" width="12" height="12" fill="#080808"/><rect x="80" y="140" width="12" height="12" fill="#080808"/><rect x="92" y="140" width="12" height="12" fill="#080808"/><rect x="116" y="140" width="12" height="12" fill="#080808"/><rect x="128" y="140" width="12" height="12" fill="#080808"/><rect x="140" y="140" width="12" height="12" fill="#080808"/><rect x="164" y="140" width="12" height="12" fill="#080808"/><rect x="188" y="140" width="12" height="12" fill="#080808"/><rect x="212" y="140" width="12" height="12" fill="#080808"/><rect x="224" y="140" width="12" height="12" fill="#080808"/><rect x="248" y="140" width="12" height="12" fill="#080808"/><rect x="32" y="152" width="12" height="12" fill="#080808"/><rect x="68" y="152" width="12" height="12" fill="#080808"/><rect x="128" y="152" width="12" height="12" fill="#080808"/><rect x="152" y="152" width="12" height="12" fill="#080808"/><rect x="236" y="152" width="12" height="12" fill="#080808"/><rect x="260" y="152" width="12" height="12" fill="#080808"/><rect x="20" y="164" width="12" height="12" fill="#080808"/><rect x="32" y="164" width="12" height="12" fill="#080808"/><rect x="56" y="164" width="12" height="12" fill="#080808"/><rect x="80" y="164" width="12" height="12" fill="#080808"/><rect x="92" y="164" width="12" height="12" fill="#080808"/><rect x="104" y="164" width="12" height="12" fill="#080808"/><rect x="116" y="164" width="12" height="12" fill="#080808"/><rect x="140" y="164" width="12" height="12" fill="#080808"/><rect x="164" y="164" width="12" height="12" fill="#080808"/><rect x="176" y="164" width="12" height="12" fill="#080808"/><rect x="188" y="164" width="12" height="12" fill="#080808"/><rect x="212" y="164" width="12" height="12" fill="#080808"/><rect x="236" y="164" width="12" height="12" fill="#080808"/><rect x="248" y="164" width="12" height="12" fill="#080808"/><rect x="116" y="176" width="12" height="12" fill="#080808"/><rect x="152" y="176" width="12" height="12" fill="#080808"/><rect x="164" y="176" width="12" height="12" fill="#080808"/><rect x="200" y="176" width="12" height="12" fill="#080808"/><rect x="224" y="176" width="12" height="12" fill="#080808"/><rect x="260" y="176" width="12" height="12" fill="#080808"/><rect x="20" y="188" width="12" height="12" fill="#080808"/><rect x="32" y="188" width="12" height="12" fill="#080808"/><rect x="44" y="188" width="12" height="12" fill="#080808"/><rect x="56" y="188" width="12" height="12" fill="#080808"/><rect x="68" y="188" width="12" height="12" fill="#080808"/><rect x="80" y="188" width="12" height="12" fill="#080808"/><rect x="92" y="188" width="12" height="12" fill="#080808"/><rect x="116" y="188" width="12" height="12" fill="#080808"/><rect x="128" y="188" width="12" height="12" fill="#080808"/><rect x="152" y="188" width="12" height="12" fill="#080808"/><rect x="188" y="188" width="12" height="12" fill="#080808"/><rect x="212" y="188" width="12" height="12" fill="#080808"/><rect x="236" y="188" width="12" height="12" fill="#080808"/><rect x="248" y="188" width="12" height="12" fill="#080808"/><rect x="20" y="200" width="12" height="12" fill="#080808"/><rect x="92" y="200" width="12" height="12" fill="#080808"/><rect x="140" y="200" width="12" height="12" fill="#080808"/><rect x="164" y="200" width="12" height="12" fill="#080808"/><rect x="200" y="200" width="12" height="12" fill="#080808"/><rect x="212" y="200" width="12" height="12" fill="#080808"/><rect x="260" y="200" width="12" height="12" fill="#080808"/><rect x="20" y="212" width="12" height="12" fill="#080808"/><rect x="44" y="212" width="12" height="12" fill="#080808"/><rect x="56" y="212" width="12" height="12" fill="#080808"/><rect x="68" y="212" width="12" height="12" fill="#080808"/><rect x="92" y="212" width="12" height="12" fill="#080808"/><rect x="116" y="212" width="12" height="12" fill="#080808"/><rect x="140" y="212" width="12" height="12" fill="#080808"/><rect x="152" y="212" width="12" height="12" fill="#080808"/><rect x="176" y="212" width="12" height="12" fill="#080808"/><rect x="188" y="212" width="12" height="12" fill="#080808"/><rect x="212" y="212" width="12" height="12" fill="#080808"/><rect x="224" y="212" width="12" height="12" fill="#080808"/><rect x="236" y="212" width="12" height="12" fill="#080808"/><rect x="260" y="212" width="12" height="12" fill="#080808"/><rect x="20" y="224" width="12" height="12" fill="#080808"/><rect x="44" y="224" width="12" height="12" fill="#080808"/><rect x="56" y="224" width="12" height="12" fill="#080808"/><rect x="68" y="224" width="12" height="12" fill="#080808"/><rect x="92" y="224" width="12" height="12" fill="#080808"/><rect x="128" y="224" width="12" height="12" fill="#080808"/><rect x="164" y="224" width="12" height="12" fill="#080808"/><rect x="200" y="224" width="12" height="12" fill="#080808"/><rect x="236" y="224" width="12" height="12" fill="#080808"/><rect x="248" y="224" width="12" height="12" fill="#080808"/><rect x="20" y="236" width="12" height="12" fill="#080808"/><rect x="44" y="236" width="12" height="12" fill="#080808"/><rect x="56" y="236" width="12" height="12" fill="#080808"/><rect x="68" y="236" width="12" height="12" fill="#080808"/><rect x="92" y="236" width="12" height="12" fill="#080808"/><rect x="116" y="236" width="12" height="12" fill="#080808"/><rect x="140" y="236" width="12" height="12" fill="#080808"/><rect x="152" y="236" width="12" height="12" fill="#080808"/><rect x="176" y="236" width="12" height="12" fill="#080808"/><rect x="188" y="236" width="12" height="12" fill="#080808"/><rect x="200" y="236" width="12" height="12" fill="#080808"/><rect x="212" y="236" width="12" height="12" fill="#080808"/><rect x="260" y="236" width="12" height="12" fill="#080808"/><rect x="20" y="248" width="12" height="12" fill="#080808"/><rect x="92" y="248" width="12" height="12" fill="#080808"/><rect x="128" y="248" width="12" height="12" fill="#080808"/><rect x="140" y="248" width="12" height="12" fill="#080808"/><rect x="224" y="248" width="12" height="12" fill="#080808"/><rect x="236" y="248" width="12" height="12" fill="#080808"/><rect x="20" y="260" width="12" height="12" fill="#080808"/><rect x="32" y="260" width="12" height="12" fill="#080808"/><rect x="44" y="260" width="12" height="12" fill="#080808"/><rect x="56" y="260" width="12" height="12" fill="#080808"/><rect x="68" y="260" width="12" height="12" fill="#080808"/><rect x="80" y="260" width="12" height="12" fill="#080808"/><rect x="92" y="260" width="12" height="12" fill="#080808"/><rect x="116" y="260" width="12" height="12" fill="#080808"/><rect x="152" y="260" width="12" height="12" fill="#080808"/><rect x="164" y="260" width="12" height="12" fill="#080808"/><rect x="188" y="260" width="12" height="12" fill="#080808"/><rect x="200" y="260" width="12" height="12" fill="#080808"/><rect x="224" y="260" width="12" height="12" fill="#080808"/><rect x="248" y="260" width="12" height="12" fill="#080808"/><rect x="260" y="260" width="12" height="12" fill="#080808"/>
</svg>